<svg width="159" height="92" viewBox="0 0 159 92" fill="none" xmlns="http://www.w3.org/2000/svg">
<path d="M8.498 10.2H9.898V20H8.498V10.2ZM2.87 20H1.47V10.2H2.87V20ZM8.624 15.632H2.73V14.414H8.624V15.632ZM13.4753 20V12.58H14.8193V20H13.4753ZM14.1473 11.152C13.886 11.152 13.6667 11.068 13.4893 10.9C13.3213 10.732 13.2373 10.5267 13.2373 10.284C13.2373 10.032 13.3213 9.822 13.4893 9.654C13.6667 9.486 13.886 9.402 14.1473 9.402C14.4087 9.402 14.6233 9.486 14.7913 9.654C14.9687 9.81267 15.0573 10.0133 15.0573 10.256C15.0573 10.508 14.9733 10.7227 14.8053 10.9C14.6373 11.068 14.418 11.152 14.1473 11.152ZM20.3535 20.084C19.7375 20.084 19.1495 20 18.5895 19.832C18.0388 19.664 17.6048 19.4587 17.2875 19.216L17.8475 18.152C18.1648 18.3667 18.5568 18.5487 19.0235 18.698C19.4902 18.8473 19.9662 18.922 20.4515 18.922C21.0768 18.922 21.5248 18.8333 21.7955 18.656C22.0755 18.4787 22.2155 18.2313 22.2155 17.914C22.2155 17.6807 22.1315 17.4987 21.9635 17.368C21.7955 17.2373 21.5715 17.1393 21.2915 17.074C21.0208 17.0087 20.7175 16.9527 20.3815 16.906C20.0455 16.85 19.7095 16.7847 19.3735 16.71C19.0375 16.626 18.7295 16.514 18.4495 16.374C18.1695 16.2247 17.9455 16.024 17.7775 15.772C17.6095 15.5107 17.5255 15.1653 17.5255 14.736C17.5255 14.288 17.6515 13.896 17.9035 13.56C18.1555 13.224 18.5102 12.9673 18.9675 12.79C19.4342 12.6033 19.9848 12.51 20.6195 12.51C21.1048 12.51 21.5948 12.5707 22.0895 12.692C22.5935 12.804 23.0042 12.9673 23.3215 13.182L22.7475 14.246C22.4115 14.022 22.0615 13.868 21.6975 13.784C21.3335 13.7 20.9695 13.658 20.6055 13.658C20.0175 13.658 19.5788 13.756 19.2895 13.952C19.0002 14.1387 18.8555 14.3813 18.8555 14.68C18.8555 14.932 18.9395 15.128 19.1075 15.268C19.2848 15.3987 19.5088 15.5013 19.7795 15.576C20.0595 15.6507 20.3675 15.716 20.7035 15.772C21.0395 15.8187 21.3755 15.884 21.7115 15.968C22.0475 16.0427 22.3508 16.15 22.6215 16.29C22.9015 16.43 23.1255 16.626 23.2935 16.878C23.4708 17.13 23.5595 17.466 23.5595 17.886C23.5595 18.334 23.4288 18.7213 23.1675 19.048C22.9062 19.3747 22.5375 19.6313 22.0615 19.818C21.5855 19.9953 21.0162 20.084 20.3535 20.084ZM28.6272 20.084C27.8805 20.084 27.3018 19.8833 26.8912 19.482C26.4805 19.0807 26.2752 18.5067 26.2752 17.76V10.956H27.6192V17.704C27.6192 18.1053 27.7172 18.4133 27.9132 18.628C28.1185 18.8427 28.4078 18.95 28.7812 18.95C29.2012 18.95 29.5512 18.8333 29.8312 18.6L30.2512 19.566C30.0458 19.7433 29.7985 19.874 29.5092 19.958C29.2292 20.042 28.9352 20.084 28.6272 20.084ZM25.0152 13.686V12.58H29.7472V13.686H25.0152ZM35.6479 20.084C34.9013 20.084 34.2386 19.9207 33.6599 19.594C33.0813 19.2673 32.6239 18.8193 32.2879 18.25C31.9519 17.6713 31.7839 17.018 31.7839 16.29C31.7839 15.5527 31.9519 14.8993 32.2879 14.33C32.6239 13.7607 33.0813 13.3173 33.6599 13C34.2386 12.6733 34.9013 12.51 35.6479 12.51C36.3853 12.51 37.0433 12.6733 37.6219 13C38.2099 13.3173 38.6673 13.7607 38.9939 14.33C39.3299 14.89 39.4979 15.5433 39.4979 16.29C39.4979 17.0273 39.3299 17.6807 38.9939 18.25C38.6673 18.8193 38.2099 19.2673 37.6219 19.594C37.0433 19.9207 36.3853 20.084 35.6479 20.084ZM35.6479 18.908C36.1239 18.908 36.5486 18.8007 36.9219 18.586C37.3046 18.3713 37.6033 18.068 37.8179 17.676C38.0326 17.2747 38.1399 16.8127 38.1399 16.29C38.1399 15.758 38.0326 15.3007 37.8179 14.918C37.6033 14.526 37.3046 14.2227 36.9219 14.008C36.5486 13.7933 36.1239 13.686 35.6479 13.686C35.1719 13.686 34.7473 13.7933 34.3739 14.008C34.0006 14.2227 33.7019 14.526 33.4779 14.918C33.2539 15.3007 33.1419 15.758 33.1419 16.29C33.1419 16.8127 33.2539 17.2747 33.4779 17.676C33.7019 18.068 34.0006 18.3713 34.3739 18.586C34.7473 18.8007 35.1719 18.908 35.6479 18.908ZM42.1967 20V12.58H43.4847V14.596L43.3587 14.092C43.564 13.5787 43.9093 13.1867 44.3947 12.916C44.88 12.6453 45.4773 12.51 46.1867 12.51V13.812C46.1307 13.8027 46.0747 13.798 46.0187 13.798C45.972 13.798 45.9253 13.798 45.8787 13.798C45.16 13.798 44.5907 14.0127 44.1707 14.442C43.7507 14.8713 43.5407 15.492 43.5407 16.304V20H42.1967ZM48.6831 20V12.58H50.0271V20H48.6831ZM49.3551 11.152C49.0938 11.152 48.8745 11.068 48.6971 10.9C48.5291 10.732 48.4451 10.5267 48.4451 10.284C48.4451 10.032 48.5291 9.822 48.6971 9.654C48.8745 9.486 49.0938 9.402 49.3551 9.402C49.6165 9.402 49.8311 9.486 49.9991 9.654C50.1765 9.81267 50.2651 10.0133 50.2651 10.256C50.2651 10.508 50.1811 10.7227 50.0131 10.9C49.8451 11.068 49.6258 11.152 49.3551 11.152ZM56.6673 20.084C55.9113 20.084 55.2346 19.9207 54.6373 19.594C54.0493 19.2673 53.5873 18.8193 53.2513 18.25C52.9153 17.6807 52.7473 17.0273 52.7473 16.29C52.7473 15.5527 52.9153 14.8993 53.2513 14.33C53.5873 13.7607 54.0493 13.3173 54.6373 13C55.2346 12.6733 55.9113 12.51 56.6673 12.51C57.3393 12.51 57.9366 12.6453 58.4593 12.916C58.9913 13.1773 59.402 13.5693 59.6913 14.092L58.6693 14.75C58.4266 14.386 58.128 14.12 57.7733 13.952C57.428 13.7747 57.0546 13.686 56.6533 13.686C56.168 13.686 55.734 13.7933 55.3513 14.008C54.9686 14.2227 54.6653 14.526 54.4413 14.918C54.2173 15.3007 54.1053 15.758 54.1053 16.29C54.1053 16.822 54.2173 17.284 54.4413 17.676C54.6653 18.068 54.9686 18.3713 55.3513 18.586C55.734 18.8007 56.168 18.908 56.6533 18.908C57.0546 18.908 57.428 18.824 57.7733 18.656C58.128 18.4787 58.4266 18.208 58.6693 17.844L59.6913 18.488C59.402 19.0013 58.9913 19.398 58.4593 19.678C57.9366 19.9487 57.3393 20.084 56.6673 20.084ZM71.4911 20.112C70.7351 20.112 70.0398 19.9907 69.4051 19.748C68.7704 19.496 68.2198 19.146 67.7531 18.698C67.2864 18.2407 66.9224 17.7087 66.6611 17.102C66.3998 16.4953 66.2691 15.828 66.2691 15.1C66.2691 14.372 66.3998 13.7047 66.6611 13.098C66.9224 12.4913 67.2864 11.964 67.7531 11.516C68.2291 11.0587 68.7844 10.7087 69.4191 10.466C70.0538 10.214 70.7538 10.088 71.5191 10.088C72.2938 10.088 73.0031 10.214 73.6471 10.466C74.2911 10.718 74.8371 11.096 75.2851 11.6L74.4171 12.468C74.0158 12.076 73.5771 11.7913 73.1011 11.614C72.6344 11.4273 72.1258 11.334 71.5751 11.334C71.0151 11.334 70.4924 11.4273 70.0071 11.614C69.5311 11.8007 69.1158 12.062 68.7611 12.398C68.4158 12.734 68.1451 13.1353 67.9491 13.602C67.7624 14.0593 67.6691 14.5587 67.6691 15.1C67.6691 15.632 67.7624 16.1313 67.9491 16.598C68.1451 17.0553 68.4158 17.4567 68.7611 17.802C69.1158 18.138 69.5311 18.3993 70.0071 18.586C70.4831 18.7727 71.0011 18.866 71.5611 18.866C72.0838 18.866 72.5831 18.7867 73.0591 18.628C73.5444 18.46 73.9924 18.1847 74.4031 17.802L75.2011 18.866C74.7158 19.2767 74.1464 19.5893 73.4931 19.804C72.8491 20.0093 72.1818 20.112 71.4911 20.112ZM73.8571 18.684V15.044H75.2011V18.866L73.8571 18.684ZM81.6476 20.084C81.0129 20.084 80.4529 19.9673 79.9676 19.734C79.4916 19.5007 79.1182 19.146 78.8476 18.67C78.5862 18.1847 78.4556 17.578 78.4556 16.85V12.58H79.7996V16.696C79.7996 17.424 79.9722 17.97 80.3176 18.334C80.6722 18.698 81.1669 18.88 81.8016 18.88C82.2682 18.88 82.6742 18.7867 83.0196 18.6C83.3649 18.404 83.6309 18.124 83.8176 17.76C84.0042 17.3867 84.0976 16.9387 84.0976 16.416V12.58H85.4416V20H84.1676V17.998L84.3776 18.53C84.1349 19.0247 83.7709 19.4073 83.2856 19.678C82.8002 19.9487 82.2542 20.084 81.6476 20.084ZM92.1442 20.084C91.3508 20.084 90.6508 19.9207 90.0442 19.594C89.4468 19.2673 88.9802 18.8193 88.6442 18.25C88.3175 17.6807 88.1542 17.0273 88.1542 16.29C88.1542 15.5527 88.3128 14.8993 88.6302 14.33C88.9568 13.7607 89.4002 13.3173 89.9602 13C90.5295 12.6733 91.1688 12.51 91.8782 12.51C92.5968 12.51 93.2315 12.6687 93.7822 12.986C94.3328 13.3033 94.7622 13.7513 95.0702 14.33C95.3875 14.8993 95.5462 15.5667 95.5462 16.332C95.5462 16.388 95.5415 16.4533 95.5322 16.528C95.5322 16.6027 95.5275 16.6727 95.5182 16.738H89.2042V15.772H94.8182L94.2722 16.108C94.2815 15.632 94.1835 15.2073 93.9782 14.834C93.7728 14.4607 93.4882 14.1713 93.1242 13.966C92.7695 13.7513 92.3542 13.644 91.8782 13.644C91.4115 13.644 90.9962 13.7513 90.6322 13.966C90.2682 14.1713 89.9835 14.4653 89.7782 14.848C89.5728 15.2213 89.4702 15.6507 89.4702 16.136V16.36C89.4702 16.8547 89.5822 17.298 89.8062 17.69C90.0395 18.0727 90.3615 18.3713 90.7722 18.586C91.1828 18.8007 91.6542 18.908 92.1862 18.908C92.6248 18.908 93.0215 18.8333 93.3762 18.684C93.7402 18.5347 94.0575 18.3107 94.3282 18.012L95.0702 18.88C94.7342 19.272 94.3142 19.5707 93.8102 19.776C93.3155 19.9813 92.7602 20.084 92.1442 20.084ZM100.38 20.084C99.7644 20.084 99.1764 20 98.6164 19.832C98.0658 19.664 97.6318 19.4587 97.3144 19.216L97.8744 18.152C98.1918 18.3667 98.5838 18.5487 99.0504 18.698C99.5171 18.8473 99.9931 18.922 100.478 18.922C101.104 18.922 101.552 18.8333 101.822 18.656C102.102 18.4787 102.242 18.2313 102.242 17.914C102.242 17.6807 102.158 17.4987 101.99 17.368C101.822 17.2373 101.598 17.1393 101.318 17.074C101.048 17.0087 100.744 16.9527 100.408 16.906C100.072 16.85 99.7364 16.7847 99.4004 16.71C99.0644 16.626 98.7564 16.514 98.4764 16.374C98.1964 16.2247 97.9724 16.024 97.8044 15.772C97.6364 15.5107 97.5524 15.1653 97.5524 14.736C97.5524 14.288 97.6784 13.896 97.9304 13.56C98.1824 13.224 98.5371 12.9673 98.9944 12.79C99.4611 12.6033 100.012 12.51 100.646 12.51C101.132 12.51 101.622 12.5707 102.116 12.692C102.62 12.804 103.031 12.9673 103.348 13.182L102.774 14.246C102.438 14.022 102.088 13.868 101.724 13.784C101.36 13.7 100.996 13.658 100.632 13.658C100.044 13.658 99.6058 13.756 99.3164 13.952C99.0271 14.1387 98.8824 14.3813 98.8824 14.68C98.8824 14.932 98.9664 15.128 99.1344 15.268C99.3118 15.3987 99.5358 15.5013 99.8064 15.576C100.086 15.6507 100.394 15.716 100.73 15.772C101.066 15.8187 101.402 15.884 101.738 15.968C102.074 16.0427 102.378 16.15 102.648 16.29C102.928 16.43 103.152 16.626 103.32 16.878C103.498 17.13 103.586 17.466 103.586 17.886C103.586 18.334 103.456 18.7213 103.194 19.048C102.933 19.3747 102.564 19.6313 102.088 19.818C101.612 19.9953 101.043 20.084 100.38 20.084ZM108.654 20.084C107.907 20.084 107.329 19.8833 106.918 19.482C106.507 19.0807 106.302 18.5067 106.302 17.76V10.956H107.646V17.704C107.646 18.1053 107.744 18.4133 107.94 18.628C108.145 18.8427 108.435 18.95 108.808 18.95C109.228 18.95 109.578 18.8333 109.858 18.6L110.278 19.566C110.073 19.7433 109.825 19.874 109.536 19.958C109.256 20.042 108.962 20.084 108.654 20.084ZM105.042 13.686V12.58H109.774V13.686H105.042ZM116.705 12.51C117.312 12.51 117.844 12.6267 118.301 12.86C118.768 13.0933 119.132 13.448 119.393 13.924C119.654 14.4 119.785 15.002 119.785 15.73V20H118.441V15.884C118.441 15.1653 118.264 14.624 117.909 14.26C117.564 13.896 117.074 13.714 116.439 13.714C115.963 13.714 115.548 13.8073 115.193 13.994C114.838 14.1807 114.563 14.456 114.367 14.82C114.18 15.184 114.087 15.6367 114.087 16.178V20H112.743V9.612H114.087V14.582L113.821 14.05C114.064 13.5647 114.437 13.1867 114.941 12.916C115.445 12.6453 116.033 12.51 116.705 12.51ZM126.29 20.084C125.544 20.084 124.881 19.9207 124.302 19.594C123.724 19.2673 123.266 18.8193 122.93 18.25C122.594 17.6713 122.426 17.018 122.426 16.29C122.426 15.5527 122.594 14.8993 122.93 14.33C123.266 13.7607 123.724 13.3173 124.302 13C124.881 12.6733 125.544 12.51 126.29 12.51C127.028 12.51 127.686 12.6733 128.264 13C128.852 13.3173 129.31 13.7607 129.636 14.33C129.972 14.89 130.14 15.5433 130.14 16.29C130.14 17.0273 129.972 17.6807 129.636 18.25C129.31 18.8193 128.852 19.2673 128.264 19.594C127.686 19.9207 127.028 20.084 126.29 20.084ZM126.29 18.908C126.766 18.908 127.191 18.8007 127.564 18.586C127.947 18.3713 128.246 18.068 128.46 17.676C128.675 17.2747 128.782 16.8127 128.782 16.29C128.782 15.758 128.675 15.3007 128.46 14.918C128.246 14.526 127.947 14.2227 127.564 14.008C127.191 13.7933 126.766 13.686 126.29 13.686C125.814 13.686 125.39 13.7933 125.016 14.008C124.643 14.2227 124.344 14.526 124.12 14.918C123.896 15.3007 123.784 15.758 123.784 16.29C123.784 16.8127 123.896 17.2747 124.12 17.676C124.344 18.068 124.643 18.3713 125.016 18.586C125.39 18.8007 125.814 18.908 126.29 18.908ZM135.961 20.084C135.326 20.084 134.766 19.9673 134.281 19.734C133.805 19.5007 133.432 19.146 133.161 18.67C132.9 18.1847 132.769 17.578 132.769 16.85V12.58H134.113V16.696C134.113 17.424 134.286 17.97 134.631 18.334C134.986 18.698 135.48 18.88 136.115 18.88C136.582 18.88 136.988 18.7867 137.333 18.6C137.678 18.404 137.944 18.124 138.131 17.76C138.318 17.3867 138.411 16.9387 138.411 16.416V12.58H139.755V20H138.481V17.998L138.691 18.53C138.448 19.0247 138.084 19.4073 137.599 19.678C137.114 19.9487 136.568 20.084 135.961 20.084ZM145.282 20.084C144.666 20.084 144.078 20 143.518 19.832C142.967 19.664 142.533 19.4587 142.216 19.216L142.776 18.152C143.093 18.3667 143.485 18.5487 143.952 18.698C144.418 18.8473 144.894 18.922 145.38 18.922C146.005 18.922 146.453 18.8333 146.724 18.656C147.004 18.4787 147.144 18.2313 147.144 17.914C147.144 17.6807 147.06 17.4987 146.892 17.368C146.724 17.2373 146.5 17.1393 146.22 17.074C145.949 17.0087 145.646 16.9527 145.31 16.906C144.974 16.85 144.638 16.7847 144.302 16.71C143.966 16.626 143.658 16.514 143.378 16.374C143.098 16.2247 142.874 16.024 142.706 15.772C142.538 15.5107 142.454 15.1653 142.454 14.736C142.454 14.288 142.58 13.896 142.832 13.56C143.084 13.224 143.438 12.9673 143.896 12.79C144.362 12.6033 144.913 12.51 145.548 12.51C146.033 12.51 146.523 12.5707 147.018 12.692C147.522 12.804 147.932 12.9673 148.25 13.182L147.676 14.246C147.34 14.022 146.99 13.868 146.626 13.784C146.262 13.7 145.898 13.658 145.534 13.658C144.946 13.658 144.507 13.756 144.218 13.952C143.928 14.1387 143.784 14.3813 143.784 14.68C143.784 14.932 143.868 15.128 144.036 15.268C144.213 15.3987 144.437 15.5013 144.708 15.576C144.988 15.6507 145.296 15.716 145.632 15.772C145.968 15.8187 146.304 15.884 146.64 15.968C146.976 16.0427 147.279 16.15 147.55 16.29C147.83 16.43 148.054 16.626 148.222 16.878C148.399 17.13 148.488 17.466 148.488 17.886C148.488 18.334 148.357 18.7213 148.096 19.048C147.834 19.3747 147.466 19.6313 146.99 19.818C146.514 19.9953 145.944 20.084 145.282 20.084ZM154.311 20.084C153.518 20.084 152.818 19.9207 152.211 19.594C151.614 19.2673 151.147 18.8193 150.811 18.25C150.485 17.6807 150.321 17.0273 150.321 16.29C150.321 15.5527 150.48 14.8993 150.797 14.33C151.124 13.7607 151.567 13.3173 152.127 13C152.697 12.6733 153.336 12.51 154.045 12.51C154.764 12.51 155.399 12.6687 155.949 12.986C156.5 13.3033 156.929 13.7513 157.237 14.33C157.555 14.8993 157.713 15.5667 157.713 16.332C157.713 16.388 157.709 16.4533 157.699 16.528C157.699 16.6027 157.695 16.6727 157.685 16.738H151.371V15.772H156.985L156.439 16.108C156.449 15.632 156.351 15.2073 156.145 14.834C155.94 14.4607 155.655 14.1713 155.291 13.966C154.937 13.7513 154.521 13.644 154.045 13.644C153.579 13.644 153.163 13.7513 152.799 13.966C152.435 14.1713 152.151 14.4653 151.945 14.848C151.74 15.2213 151.637 15.6507 151.637 16.136V16.36C151.637 16.8547 151.749 17.298 151.973 17.69C152.207 18.0727 152.529 18.3713 152.939 18.586C153.35 18.8007 153.821 18.908 154.353 18.908C154.792 18.908 155.189 18.8333 155.543 18.684C155.907 18.5347 156.225 18.3107 156.495 18.012L157.237 18.88C156.901 19.272 156.481 19.5707 155.977 19.776C155.483 19.9813 154.927 20.084 154.311 20.084Z" fill="#59493D"/>
<g clip-path="url(#clip0_12181_2132)">
<path d="M13.2431 42.4699C16.9732 42.4699 19.5862 43.5279 21.082 45.6438C22.5777 47.7597 23.3256 51.4671 23.3256 56.7661C23.3256 62.0651 22.3931 65.791 20.528 67.9437C18.6629 70.0964 15.2374 71.1728 10.2516 71.1728C8.7004 71.1728 6.1336 71.0256 2.55116 70.7312L1 70.5656V30.9888H5.09949V44.4018C7.90635 43.1139 10.6209 42.4699 13.2431 42.4699V42.4699ZM10.1962 67.4745C13.8155 67.4745 16.2069 66.6557 17.3703 65.0182C18.5336 63.3807 19.1153 60.6116 19.1153 56.7109C19.1153 52.8103 18.6537 50.078 17.7304 48.5141C16.8071 46.9501 15.1636 46.1682 12.7999 46.1682C10.6578 46.1682 8.46034 46.5729 6.20746 47.3825L5.09949 47.7689V67.1985C7.5001 67.3825 9.19899 67.4745 10.1962 67.4745Z" fill="#59493D"/>
<path d="M30.1396 70.6209V43.022H34.2945V70.6209H30.1396V70.6209Z" fill="#59493D"/>
<path d="M42.2695 70.6206V43.0217H46.369V46.7752C49.5821 44.5673 52.9615 43.1137 56.507 42.4146V46.6096C54.9558 46.904 53.34 47.364 51.6596 47.9895C49.9792 48.6151 48.6958 49.1671 47.8094 49.6455L46.4244 50.363V70.6206H42.2695V70.6206Z" fill="#59493D"/>
<path d="M71.2426 42.4697C72.4614 42.4697 74.5296 42.6905 77.4473 43.1321L78.7768 43.2977L78.6106 46.6648C75.656 46.3336 73.477 46.168 72.0736 46.168C68.9344 46.168 66.8015 46.9131 65.6751 48.4035C64.5486 49.8938 63.9854 52.6537 63.9854 56.6832C63.9854 60.7126 64.5117 63.5185 65.5643 65.1008C66.6168 66.6832 68.8051 67.4743 72.129 67.4743L78.666 66.9775L78.8322 70.3998C75.3975 70.915 72.8307 71.1726 71.1318 71.1726C66.8107 71.1726 63.8285 70.0686 62.185 67.8607C60.5415 65.6528 59.7197 61.9269 59.7197 56.6832C59.7197 51.4394 60.6061 47.7595 62.3789 45.6436C64.1516 43.5277 67.1062 42.4697 71.2426 42.4697V42.4697Z" fill="#59493D"/>
<path d="M89.192 70.6208H85.0371V30.9888H89.192V44.5674C92.1466 43.1691 94.9904 42.4699 97.7234 42.4699C101.417 42.4699 103.9 43.4635 105.174 45.4506C106.449 47.4377 107.086 50.9704 107.086 56.0486V70.6208H102.931V56.159C102.931 52.3319 102.552 49.71 101.795 48.2933C101.038 46.8765 99.4407 46.1682 97.0032 46.1682C94.5657 46.1682 92.4236 46.5913 90.2446 47.4377L89.192 47.8241V70.6208V70.6208Z" fill="#59493D"/>
<path d="M133.622 67.1983L135.228 67.0327L135.339 70.2894C131.129 70.8782 127.528 71.1726 124.536 71.1726C120.548 71.1726 117.722 70.0226 116.06 67.7227C114.398 65.4228 113.567 61.8441 113.567 56.9867C113.567 47.3087 117.427 42.4697 125.146 42.4697C128.876 42.4697 131.664 43.5093 133.511 45.5884C135.357 47.6675 136.281 50.9334 136.281 55.386L136.059 58.5323H117.778C117.778 61.5866 118.332 63.8497 119.44 65.3216C120.548 66.7936 122.477 67.5295 125.229 67.5295C127.98 67.5295 130.778 67.4191 133.622 67.1983V67.1983ZM132.126 55.2204C132.126 51.835 131.581 49.443 130.492 48.0447C129.402 46.6464 127.629 45.9472 125.173 45.9472C122.717 45.9472 120.871 46.6832 119.634 48.1551C118.396 49.627 117.759 51.9821 117.722 55.2204H132.126V55.2204Z" fill="#59493D"/>
<path d="M142.763 70.6206V43.0217H146.862V46.7752C150.075 44.5673 153.455 43.1137 157 42.4146V46.6096C155.449 46.904 153.833 47.364 152.153 47.9895C150.472 48.6151 149.189 49.1671 148.303 49.6455L146.918 50.363V70.6206H142.763Z" fill="#59493D"/>
<path d="M36.694 34.3905L32.2871 29.9995L27.8802 34.3905L32.2871 38.7814L36.694 34.3905Z" fill="#D2AC8B"/>
<path d="M19.6553 85.2887H20.9225C21.0425 85.2887 21.1441 85.3163 21.2272 85.3715C21.308 85.4267 21.3611 85.498 21.3819 85.5831L22.3329 89.1112C22.3837 89.3043 22.4275 89.4929 22.4598 89.6769C22.4921 89.8609 22.5245 90.0472 22.5545 90.2312C22.6029 90.0472 22.6514 89.8609 22.7068 89.6769C22.7599 89.4929 22.8176 89.3043 22.8776 89.1112L23.9764 85.5693C24.0018 85.4842 24.0548 85.4129 24.131 85.3577C24.2095 85.3025 24.2995 85.2749 24.4034 85.2749H25.1074C25.2228 85.2749 25.3198 85.3025 25.3983 85.3577C25.4767 85.4129 25.5275 85.4842 25.5529 85.5693L26.6378 89.1755C26.6932 89.3595 26.744 89.5389 26.7901 89.7137C26.8363 89.8885 26.8802 90.0633 26.9217 90.2381C26.9517 90.0541 26.9863 89.8701 27.021 89.6838C27.0579 89.4998 27.1041 89.3089 27.1595 89.1112L28.1428 85.5831C28.1636 85.498 28.2167 85.4267 28.2974 85.3715C28.3782 85.3163 28.4752 85.2887 28.5814 85.2887H29.7909L27.6904 91.8963H26.4047C26.2662 91.8963 26.1669 91.802 26.1069 91.6135L24.9112 87.7956C24.872 87.6714 24.8373 87.5449 24.805 87.4184C24.7727 87.2919 24.745 87.1654 24.7242 87.0412C24.6988 87.17 24.6711 87.2988 24.6411 87.4253C24.6111 87.5518 24.5765 87.6806 24.5373 87.8094L23.3277 91.6157C23.2677 91.8043 23.15 91.8986 22.9792 91.8986H21.7581L19.6576 85.291L19.6553 85.2887Z" fill="#D2AC8B"/>
<path d="M35.2108 83.3641C35.2108 83.5021 35.1831 83.6309 35.1277 83.7505C35.0723 83.8701 34.9961 83.9759 34.9038 84.0655C34.8115 84.1552 34.703 84.2288 34.5783 84.2817C34.4537 84.3346 34.3198 84.3622 34.1767 84.3622C34.0336 84.3622 33.9089 84.3346 33.7866 84.2817C33.6642 84.2288 33.5581 84.1552 33.4657 84.0655C33.3734 83.9759 33.3018 83.8701 33.2488 83.7505C33.1957 83.6309 33.168 83.5021 33.168 83.3641C33.168 83.2261 33.1957 83.0904 33.2488 82.9639C33.3018 82.8397 33.3757 82.7316 33.4657 82.6419C33.5558 82.5522 33.6619 82.4809 33.7866 82.4257C33.9112 82.3705 34.0405 82.3452 34.1767 82.3452C34.3129 82.3452 34.4514 82.3728 34.5783 82.4257C34.703 82.4786 34.8115 82.5522 34.9038 82.6419C34.9961 82.7316 35.07 82.8397 35.1277 82.9639C35.1831 83.0881 35.2108 83.2215 35.2108 83.3641ZM34.9707 85.2891V91.8967H33.3734V85.2891H34.9707Z" fill="#D2AC8B"/>
<path d="M41.5373 92C40.9649 92 40.5217 91.8367 40.2124 91.5147C39.9031 91.1904 39.7461 90.7419 39.7461 90.1716V86.4825H39.0744C38.989 86.4825 38.9128 86.4549 38.8505 86.3997C38.7882 86.3445 38.7559 86.2594 38.7559 86.149V85.5188L39.8223 85.344L40.1593 83.5409C40.1754 83.4558 40.217 83.3891 40.2793 83.3408C40.3416 83.2925 40.4201 83.2695 40.5148 83.2695H41.3411V85.3487H43.0862V86.4825H41.3411V90.0635C41.3411 90.2705 41.3919 90.4314 41.4958 90.5464C41.5997 90.6614 41.7358 90.7212 41.909 90.7212C42.0082 90.7212 42.0913 90.7097 42.1583 90.6867C42.2252 90.6637 42.2829 90.6384 42.3337 90.6131C42.3822 90.5878 42.4283 90.5625 42.4653 90.5395C42.5022 90.5165 42.5437 90.505 42.5807 90.505C42.6291 90.505 42.6661 90.5165 42.6961 90.5395C42.7261 90.5625 42.7584 90.5993 42.793 90.6453L43.2708 91.4181C43.0377 91.6113 42.7699 91.7562 42.4699 91.8551C42.1675 91.954 41.8559 92.0023 41.5327 92.0023L41.5373 92Z" fill="#D2AC8B"/>
<path d="M46.9482 91.8966V82.3267H48.5456V86.0042C48.8041 85.7604 49.088 85.5626 49.3996 85.4108C49.7089 85.2613 50.0736 85.1854 50.4914 85.1854C50.8538 85.1854 51.1747 85.2475 51.454 85.3694C51.7333 85.4913 51.9687 85.6638 52.1557 85.8846C52.3427 86.1054 52.4858 86.3699 52.5827 86.6758C52.6797 86.9817 52.7282 87.3198 52.7282 87.69V91.8943H51.1308V87.69C51.1308 87.2876 51.0362 86.9748 50.8492 86.754C50.6623 86.5332 50.3806 86.4228 50.0067 86.4228C49.7297 86.4228 49.4712 86.4849 49.2311 86.6091C48.9888 86.7333 48.7602 86.9035 48.5456 87.1174V91.8966H46.9482V91.8966Z" fill="#D2AC8B"/>
<path d="M67.1572 91.8965H66.4393C66.2893 91.8965 66.1693 91.8735 66.0839 91.8298C65.9985 91.7838 65.9338 91.6941 65.89 91.5561L65.7469 91.087C65.5784 91.2365 65.4145 91.3698 65.2529 91.4825C65.0913 91.5952 64.9251 91.6918 64.752 91.77C64.5789 91.8482 64.3965 91.9057 64.2026 91.9448C64.0087 91.9839 63.7941 92.0023 63.5563 92.0023C63.277 92.0023 63.0185 91.9655 62.7807 91.8896C62.543 91.8137 62.3399 91.701 62.169 91.5492C61.9982 91.3974 61.8667 91.2112 61.772 90.9881C61.6774 90.765 61.6289 90.5028 61.6289 90.2061C61.6289 89.9554 61.6958 89.7093 61.8251 89.4655C61.9567 89.2217 62.176 89.0032 62.4807 88.8054C62.7877 88.61 63.1939 88.4467 63.7017 88.3179C64.2096 88.1891 64.842 88.1247 65.5945 88.1247V87.736C65.5945 87.2898 65.4999 86.9609 65.3129 86.747C65.1259 86.5331 64.8536 86.425 64.4958 86.425C64.2373 86.425 64.0226 86.4549 63.8495 86.5147C63.6763 86.5745 63.5263 86.6435 63.3993 86.7171C63.2724 86.793 63.1547 86.8597 63.0462 86.9195C62.9377 86.9793 62.82 87.0092 62.6907 87.0092C62.5822 87.0092 62.4899 86.9816 62.4137 86.9264C62.3352 86.8712 62.2729 86.8022 62.2267 86.7194L61.9359 86.2112C62.6976 85.5166 63.6186 85.167 64.6966 85.167C65.0844 85.167 65.4306 85.2314 65.733 85.3579C66.0377 85.4844 66.2939 85.6615 66.5063 85.8869C66.7163 86.1123 66.8779 86.3813 66.9887 86.6941C67.0995 87.0069 67.1526 87.3519 67.1526 87.7245V91.8965H67.1572ZM64.0549 90.9053C64.2188 90.9053 64.3688 90.8915 64.5073 90.8616C64.6458 90.8317 64.7751 90.788 64.8974 90.7282C65.0198 90.6684 65.1375 90.5971 65.2529 90.5097C65.366 90.4223 65.4814 90.3211 65.5991 90.2015V89.0952C65.1329 89.0952 64.7451 89.1251 64.4335 89.1826C64.1218 89.2401 63.8702 89.316 63.681 89.4057C63.4917 89.4954 63.3578 89.6035 63.277 89.7231C63.1985 89.845 63.157 89.9761 63.157 90.1187C63.157 90.3993 63.2401 90.6017 63.4063 90.7213C63.5725 90.8409 63.7895 90.903 64.0549 90.903V90.9053Z" fill="#D2AC8B"/>
<path d="M73.0133 82.3267V91.8966H71.416V82.3267H73.0133Z" fill="#D2AC8B"/>
<path d="M79.1022 82.3267V91.8966H77.5049V82.3267H79.1022Z" fill="#D2AC8B"/>
<path d="M92.5069 86.5767C92.463 86.6457 92.4192 86.694 92.3707 86.7216C92.3222 86.7492 92.2622 86.763 92.1907 86.763C92.1122 86.763 92.0291 86.7423 91.9414 86.6986C91.8537 86.6549 91.7498 86.6066 91.6344 86.5537C91.519 86.5008 91.3851 86.4525 91.2373 86.4088C91.0896 86.3651 90.9119 86.3444 90.7111 86.3444C90.3971 86.3444 90.1478 86.4111 89.9678 86.5445C89.7878 86.6779 89.6954 86.8504 89.6954 87.0666C89.6954 87.2092 89.7416 87.3265 89.8339 87.4231C89.9263 87.5197 90.0486 87.6048 90.2032 87.6784C90.3556 87.752 90.5287 87.8164 90.7226 87.8739C90.9165 87.9314 91.115 87.9958 91.3181 88.0648C91.5213 88.1337 91.7198 88.2119 91.9137 88.2993C92.1076 88.3867 92.2807 88.4994 92.433 88.6351C92.5854 88.7708 92.7077 88.9318 92.8024 89.1204C92.8947 89.309 92.9409 89.5367 92.9409 89.8035C92.9409 90.1209 92.8831 90.4153 92.7654 90.682C92.65 90.9511 92.4792 91.1811 92.2553 91.3766C92.0314 91.5721 91.7544 91.7239 91.4243 91.8343C91.0942 91.9447 90.7157 91.9976 90.291 91.9976C90.0624 91.9976 89.8385 91.9769 89.6216 91.9355C89.4046 91.8941 89.1945 91.8389 88.9937 91.7653C88.7929 91.6917 88.6082 91.6066 88.4374 91.5077C88.2666 91.4088 88.1166 91.3007 87.9873 91.1857L88.3566 90.5809C88.4051 90.5073 88.4605 90.4521 88.5251 90.413C88.5898 90.3739 88.6705 90.3555 88.7698 90.3555C88.8691 90.3555 88.9614 90.3831 89.0514 90.4383C89.1391 90.4935 89.243 90.5532 89.3584 90.6176C89.4738 90.682 89.6123 90.7418 89.7693 90.797C89.9263 90.8522 90.1248 90.8798 90.3671 90.8798C90.5564 90.8798 90.7203 90.8568 90.8542 90.8131C90.9904 90.7671 91.1012 90.7096 91.1912 90.636C91.2812 90.5624 91.3435 90.4774 91.3851 90.3808C91.4266 90.2842 91.4474 90.1853 91.4474 90.0818C91.4474 89.9277 91.4012 89.8012 91.3089 89.7023C91.2166 89.6034 91.0942 89.5183 90.9396 89.4447C90.7872 89.3711 90.6118 89.3067 90.4156 89.2492C90.2194 89.1917 90.0186 89.1273 89.8155 89.0583C89.61 88.9893 89.4115 88.9088 89.2153 88.8168C89.0191 88.7248 88.8437 88.6075 88.6913 88.4649C88.539 88.3223 88.4166 88.1498 88.322 87.9429C88.2297 87.7359 88.1835 87.4875 88.1835 87.1954C88.1835 86.924 88.2366 86.6664 88.3451 86.4226C88.4536 86.1788 88.6105 85.9649 88.8206 85.7809C89.0283 85.5992 89.2892 85.4521 89.6031 85.344C89.9147 85.2336 90.2771 85.1807 90.6857 85.1807C91.1427 85.1807 91.5582 85.2566 91.9321 85.4061C92.3061 85.5556 92.62 85.7533 92.8693 85.9994L92.5069 86.5721V86.5767Z" fill="#D2AC8B"/>
<path d="M99.5451 85.1855C99.9629 85.1855 100.348 85.2522 100.699 85.3856C101.05 85.519 101.352 85.7122 101.606 85.9675C101.86 86.2228 102.059 86.5356 102.202 86.9082C102.345 87.2785 102.414 87.7039 102.414 88.18C102.414 88.2996 102.41 88.4008 102.398 88.479C102.387 88.5572 102.368 88.6216 102.34 88.6653C102.313 88.709 102.276 88.7435 102.227 88.7619C102.179 88.7803 102.119 88.7918 102.047 88.7918H97.95C97.9985 89.4703 98.1809 89.9694 98.4994 90.2867C98.818 90.6041 99.2404 90.7628 99.7666 90.7628C100.025 90.7628 100.249 90.7329 100.436 90.6731C100.623 90.6133 100.787 90.5466 100.928 90.473C101.069 90.3994 101.191 90.3327 101.297 90.2729C101.403 90.2131 101.505 90.1832 101.604 90.1832C101.669 90.1832 101.724 90.197 101.773 90.2223C101.821 90.2476 101.86 90.2844 101.895 90.3327L102.361 90.9123C102.183 91.1193 101.987 91.2918 101.766 91.4298C101.546 91.5701 101.315 91.6805 101.078 91.7656C100.838 91.8484 100.595 91.9082 100.348 91.9427C100.101 91.9772 99.8613 91.9933 99.6282 91.9933C99.1665 91.9933 98.7372 91.9174 98.3424 91.7656C97.9454 91.6138 97.6015 91.3884 97.3083 91.0894C97.0152 90.7904 96.7844 90.4224 96.6159 89.9809C96.4474 89.5416 96.3643 89.031 96.3643 88.4514C96.3643 88.0006 96.4381 87.5775 96.5835 87.1796C96.729 86.7817 96.939 86.4367 97.2137 86.1423C97.4861 85.8479 97.8208 85.6156 98.2155 85.4431C98.6102 85.2706 99.0534 85.1855 99.5497 85.1855H99.5451ZM99.5774 86.3263C99.1111 86.3263 98.7487 86.4574 98.4856 86.7196C98.2224 86.9818 98.0539 87.3521 97.9824 87.8327H100.981C100.981 87.6257 100.953 87.4326 100.898 87.2509C100.842 87.0692 100.755 86.9082 100.639 86.7702C100.524 86.6322 100.376 86.5241 100.201 86.4459C100.023 86.3677 99.8174 86.3263 99.5797 86.3263H99.5774Z" fill="#D2AC8B"/>
<path d="M106.298 91.8963V85.2887H107.275C107.482 85.2887 107.616 85.3853 107.681 85.5785L107.792 86.1006C107.926 85.9626 108.066 85.8384 108.214 85.728C108.362 85.6153 108.521 85.5187 108.685 85.4382C108.849 85.3577 109.029 85.2956 109.218 85.2519C109.407 85.2082 109.615 85.1875 109.839 85.1875C110.201 85.1875 110.522 85.2496 110.802 85.3715C111.081 85.4934 111.316 85.6659 111.503 85.8867C111.69 86.1075 111.833 86.372 111.93 86.6778C112.027 86.9837 112.076 87.3218 112.076 87.6921V91.8963H110.478V87.6921C110.478 87.2896 110.384 86.9768 110.197 86.756C110.01 86.5352 109.728 86.4249 109.354 86.4249C109.077 86.4249 108.819 86.4869 108.579 86.6111C108.336 86.7353 108.108 86.9055 107.893 87.1194V91.8986H106.296L106.298 91.8963Z" fill="#D2AC8B"/>
<path d="M120.169 86.5767C120.125 86.6457 120.081 86.694 120.033 86.7216C119.984 86.7492 119.924 86.763 119.853 86.763C119.774 86.763 119.691 86.7423 119.603 86.6986C119.516 86.6549 119.412 86.6066 119.296 86.5537C119.181 86.5008 119.047 86.4525 118.899 86.4088C118.752 86.3651 118.574 86.3444 118.373 86.3444C118.059 86.3444 117.81 86.4111 117.63 86.5445C117.45 86.6779 117.358 86.8504 117.358 87.0666C117.358 87.2092 117.404 87.3265 117.496 87.4231C117.588 87.5197 117.711 87.6048 117.865 87.6784C118.018 87.752 118.191 87.8164 118.385 87.8739C118.579 87.9314 118.777 87.9958 118.98 88.0648C119.183 88.1337 119.382 88.2119 119.576 88.2993C119.77 88.3867 119.943 88.4994 120.095 88.6351C120.247 88.7708 120.37 88.9318 120.464 89.1204C120.557 89.309 120.603 89.5367 120.603 89.8035C120.603 90.1209 120.545 90.4153 120.428 90.682C120.312 90.9511 120.141 91.1811 119.917 91.3766C119.694 91.5721 119.417 91.7239 119.086 91.8343C118.756 91.9447 118.378 91.9976 117.953 91.9976C117.725 91.9976 117.501 91.9769 117.284 91.9355C117.067 91.8941 116.857 91.8389 116.656 91.7653C116.455 91.6917 116.27 91.6066 116.1 91.5077C115.929 91.4088 115.779 91.3007 115.649 91.1857L116.019 90.5809C116.067 90.5073 116.123 90.4521 116.187 90.413C116.252 90.3739 116.333 90.3555 116.432 90.3555C116.531 90.3555 116.624 90.3831 116.714 90.4383C116.801 90.4935 116.905 90.5532 117.021 90.6176C117.136 90.682 117.274 90.7418 117.431 90.797C117.588 90.8522 117.787 90.8798 118.029 90.8798C118.219 90.8798 118.382 90.8568 118.516 90.8131C118.652 90.7671 118.763 90.7096 118.853 90.636C118.943 90.5624 119.006 90.4774 119.047 90.3808C119.089 90.2842 119.11 90.1853 119.11 90.0818C119.11 89.9277 119.063 89.8012 118.971 89.7023C118.879 89.6034 118.756 89.5183 118.602 89.4447C118.449 89.3711 118.274 89.3067 118.078 89.2492C117.882 89.1917 117.681 89.1273 117.478 89.0583C117.272 88.9893 117.074 88.9088 116.877 88.8168C116.681 88.7248 116.506 88.6075 116.353 88.4649C116.201 88.3223 116.079 88.1498 115.984 87.9429C115.892 87.7359 115.846 87.4875 115.846 87.1954C115.846 86.924 115.899 86.6664 116.007 86.4226C116.116 86.1788 116.273 85.9649 116.483 85.7809C116.69 85.5992 116.951 85.4521 117.265 85.344C117.577 85.2336 117.939 85.1807 118.348 85.1807C118.805 85.1807 119.22 85.2566 119.594 85.4061C119.968 85.5556 120.282 85.7533 120.531 85.9994L120.169 86.5721V86.5767Z" fill="#D2AC8B"/>
<path d="M127.207 85.1855C127.625 85.1855 128.01 85.2522 128.361 85.3856C128.712 85.519 129.015 85.7122 129.268 85.9675C129.522 86.2228 129.721 86.5356 129.864 86.9082C130.007 87.2785 130.076 87.7039 130.076 88.18C130.076 88.2996 130.072 88.4008 130.06 88.479C130.049 88.5572 130.03 88.6216 130.002 88.6653C129.975 88.709 129.938 88.7435 129.889 88.7619C129.841 88.7803 129.781 88.7918 129.709 88.7918H125.612C125.661 89.4703 125.843 89.9694 126.162 90.2867C126.48 90.6041 126.902 90.7628 127.429 90.7628C127.687 90.7628 127.911 90.7329 128.098 90.6731C128.285 90.6133 128.449 90.5466 128.59 90.473C128.731 90.3994 128.853 90.3327 128.959 90.2729C129.065 90.2131 129.167 90.1832 129.266 90.1832C129.331 90.1832 129.386 90.197 129.435 90.2223C129.483 90.2476 129.522 90.2844 129.557 90.3327L130.023 90.9123C129.846 91.1193 129.649 91.2918 129.428 91.4298C129.208 91.5701 128.978 91.6805 128.74 91.7656C128.5 91.8484 128.257 91.9082 128.01 91.9427C127.763 91.9772 127.523 91.9933 127.29 91.9933C126.829 91.9933 126.399 91.9174 126.005 91.7656C125.608 91.6138 125.264 91.3884 124.97 91.0894C124.677 90.7904 124.446 90.4224 124.278 89.9809C124.109 89.5416 124.026 89.031 124.026 88.4514C124.026 88.0006 124.1 87.5775 124.246 87.1796C124.391 86.7817 124.601 86.4367 124.876 86.1423C125.148 85.8479 125.483 85.6156 125.878 85.4431C126.272 85.2706 126.716 85.1855 127.212 85.1855H127.207ZM127.239 86.3263C126.773 86.3263 126.411 86.4574 126.148 86.7196C125.885 86.9818 125.716 87.3521 125.644 87.8327H128.643C128.643 87.6257 128.615 87.4326 128.56 87.2509C128.504 87.0692 128.417 86.9082 128.301 86.7702C128.186 86.6322 128.038 86.5241 127.863 86.4459C127.685 86.3677 127.48 86.3263 127.242 86.3263H127.239Z" fill="#D2AC8B"/>
<path d="M137.897 86.5767C137.853 86.6457 137.809 86.694 137.76 86.7216C137.712 86.7492 137.652 86.763 137.58 86.763C137.502 86.763 137.419 86.7423 137.331 86.6986C137.243 86.6549 137.139 86.6066 137.024 86.5537C136.909 86.5008 136.775 86.4525 136.627 86.4088C136.479 86.3651 136.302 86.3444 136.101 86.3444C135.787 86.3444 135.538 86.4111 135.357 86.5445C135.177 86.6779 135.085 86.8504 135.085 87.0666C135.085 87.2092 135.131 87.3265 135.224 87.4231C135.316 87.5197 135.438 87.6048 135.593 87.6784C135.745 87.752 135.918 87.8164 136.112 87.8739C136.306 87.9314 136.505 87.9958 136.708 88.0648C136.911 88.1337 137.109 88.2119 137.303 88.2993C137.497 88.3867 137.67 88.4994 137.823 88.6351C137.975 88.7708 138.097 88.9318 138.192 89.1204C138.284 89.309 138.331 89.5367 138.331 89.8035C138.331 90.1209 138.273 90.4153 138.155 90.682C138.04 90.9511 137.869 91.1811 137.645 91.3766C137.421 91.5721 137.144 91.7239 136.814 91.8343C136.484 91.9447 136.105 91.9976 135.681 91.9976C135.452 91.9976 135.228 91.9769 135.011 91.9355C134.794 91.8941 134.584 91.8389 134.383 91.7653C134.183 91.6917 133.998 91.6066 133.827 91.5077C133.656 91.4088 133.506 91.3007 133.377 91.1857L133.746 90.5809C133.795 90.5073 133.85 90.4521 133.915 90.413C133.979 90.3739 134.06 90.3555 134.159 90.3555C134.259 90.3555 134.351 90.3831 134.441 90.4383C134.529 90.4935 134.633 90.5532 134.748 90.6176C134.863 90.682 135.002 90.7418 135.159 90.797C135.316 90.8522 135.514 90.8798 135.757 90.8798C135.946 90.8798 136.11 90.8568 136.244 90.8131C136.38 90.7671 136.491 90.7096 136.581 90.636C136.671 90.5624 136.733 90.4774 136.775 90.3808C136.816 90.2842 136.837 90.1853 136.837 90.0818C136.837 89.9277 136.791 89.8012 136.699 89.7023C136.606 89.6034 136.484 89.5183 136.329 89.4447C136.177 89.3711 136.001 89.3067 135.805 89.2492C135.609 89.1917 135.408 89.1273 135.205 89.0583C135 88.9893 134.801 88.9088 134.605 88.8168C134.409 88.7248 134.233 88.6075 134.081 88.4649C133.929 88.3223 133.806 88.1498 133.712 87.9429C133.619 87.7359 133.573 87.4875 133.573 87.1954C133.573 86.924 133.626 86.6664 133.735 86.4226C133.843 86.1788 134 85.9649 134.21 85.7809C134.418 85.5992 134.679 85.4521 134.993 85.344C135.304 85.2336 135.667 85.1807 136.075 85.1807C136.532 85.1807 136.948 85.2566 137.322 85.4061C137.696 85.5556 138.01 85.7533 138.259 85.9994L137.897 86.5721V86.5767Z" fill="#D2AC8B"/>
</g>
<defs>
<clipPath id="clip0_12181_2132">
<rect width="156" height="62" fill="white" transform="translate(1 30)"/>
</clipPath>
</defs>
</svg>
